<svg width="17" height="20" viewBox="0 0 17 20" fill="none" xmlns="http://www.w3.org/2000/svg">
<g id="Group 18165">
<path id="Vector" d="M8.50017 12.0001C10.7062 12.0001 12.5002 10.2061 12.5002 8.00006C12.5002 5.79404 10.7062 4.00003 8.50017 4.00003C6.29415 4.00003 4.50014 5.79404 4.50014 8.00006C4.50014 10.2061 6.29415 12.0001 8.50017 12.0001ZM8.50017 6.00005C9.60318 6.00005 10.5002 6.89705 10.5002 8.00006C10.5002 9.10307 9.60318 10.0001 8.50017 10.0001C7.39716 10.0001 6.50015 9.10307 6.50015 8.00006C6.50015 6.89705 7.39716 6.00005 8.50017 6.00005Z" fill="white"/>
<path id="Vector_2" d="M7.92015 19.8142C8.0894 19.935 8.29218 20 8.50015 20C8.70813 20 8.91091 19.935 9.08016 19.8142C9.38416 19.5992 16.5292 14.4401 16.5002 8.00006C16.5002 3.58903 12.9112 0 8.50015 0C4.08912 0 0.500088 3.58903 0.500088 7.99506C0.471088 14.4401 7.61615 19.5992 7.92015 19.8142ZM8.50015 2.00002C11.8092 2.00002 14.5002 4.69104 14.5002 8.00506C14.5212 12.4431 10.1122 16.4281 8.50015 17.7351C6.88914 16.4271 2.4791 12.4411 2.5001 8.00006C2.5001 4.69104 5.19113 2.00002 8.50015 2.00002Z" fill="white"/>
</g>
</svg>
