<svg width="18" height="20" viewBox="0 0 18 20" fill="none" xmlns="http://www.w3.org/2000/svg">
<path id="Vector" d="M1.99992 20H15.9993C16.5298 20 17.0384 19.7893 17.4135 19.4142C17.7886 19.0392 17.9993 18.5305 17.9993 18.0001V9.00044C18 8.86883 17.9748 8.73838 17.925 8.61654C17.8753 8.49471 17.802 8.3839 17.7093 8.29046L9.70961 0.290781C9.52225 0.104538 9.26881 0 9.00463 0C8.74046 0 8.48702 0.104538 8.29966 0.290781L0.299988 8.29046C0.205503 8.38307 0.130337 8.49352 0.0788421 8.61539C0.0273475 8.73726 0.000549228 8.86813 0 9.00044V18.0001C0 18.5305 0.210705 19.0392 0.585763 19.4142C0.96082 19.7893 1.46951 20 1.99992 20ZM6.99972 18.0001V13.0003H10.9996V18.0001H6.99972ZM1.99992 9.41042L8.99963 2.4107L15.9993 9.41042V18.0001H12.9995V13.0003C12.9995 12.4699 12.7888 11.9612 12.4137 11.5861C12.0387 11.2111 11.53 11.0004 10.9996 11.0004H6.99972C6.4693 11.0004 5.96062 11.2111 5.58556 11.5861C5.2105 11.9612 4.9998 12.4699 4.9998 13.0003V18.0001H1.99992V9.41042Z" fill="white"/>
</svg>
